<svg width="24" height="24" viewBox="0 0 24 24" fill="none" xmlns="http://www.w3.org/2000/svg">
<g clip-path="url(#clip0_171_320)">
<path d="M23.9992 12.0732C23.9992 5.40417 18.6262 -0.00183105 11.9992 -0.00183105C5.36925 -0.000331055 -0.00374985 5.40417 -0.00374985 12.0747C-0.00374985 18.1002 4.38525 23.0952 10.1212 24.0012V15.5637H7.07625V12.0747H10.1242V9.41217C10.1242 6.38667 11.9167 4.71567 14.6572 4.71567C15.9712 4.71567 17.3437 4.95117 17.3437 4.95117V7.92117H15.8302C14.3407 7.92117 13.8757 8.85267 13.8757 9.80817V12.0732H17.2027L16.6717 15.5622H13.8742V23.9997C19.6102 23.0937 23.9992 18.0987 23.9992 12.0732Z" fill="white"/>
</g>
<defs>
<clipPath id="clip0_171_320">
<rect width="24" height="24" fill="white"/>
</clipPath>
</defs>
</svg>
