<svg width="80" height="33" viewBox="0 0 80 33" fill="none" xmlns="http://www.w3.org/2000/svg">
<path d="M29.2413 8.36001C29.4229 8.32334 29.6444 8.29767 29.9059 8.28301C30.1674 8.26101 30.3816 8.25001 30.5487 8.25001C30.7375 8.25001 30.9518 8.25734 31.1915 8.27201C31.4312 8.28667 31.6563 8.30867 31.8669 8.33801L31.2895 10.934L31.1152 10.956C31.1443 11.4547 31.1697 12.012 31.1915 12.628C31.2205 13.2367 31.2423 13.8563 31.2568 14.487C31.2786 15.1103 31.2895 15.6933 31.2895 16.236V23.364C31.1007 23.3933 30.9191 23.4153 30.7448 23.43C30.5705 23.4447 30.4107 23.452 30.2654 23.452C30.1274 23.452 29.9676 23.4447 29.7861 23.43C29.6045 23.4153 29.4229 23.3933 29.2413 23.364V8.36001ZM32.5969 13.992C32.3209 13.4493 32.0667 12.925 31.8343 12.419C31.6091 11.9057 31.3912 11.4143 31.1806 10.945L30.1565 9.68001L31.8669 8.33801L36.6061 17.699C36.8894 18.271 37.1509 18.8283 37.3906 19.371C37.6375 19.9137 37.8663 20.4123 38.0769 20.867L39.1664 22.011L37.3579 23.364L32.5969 13.992ZM40.0053 8.37101V23.342C39.831 23.3787 39.6203 23.4043 39.3734 23.419C39.1264 23.441 38.894 23.452 38.6761 23.452C38.4655 23.452 38.244 23.4447 38.0116 23.43C37.7864 23.4153 37.5685 23.3933 37.3579 23.364L37.968 20.878L38.1532 20.856C38.1169 20.2767 38.0842 19.6643 38.0551 19.019C38.0261 18.3737 38.0043 17.7393 37.9898 17.116C37.9825 16.4927 37.9789 15.928 37.9789 15.422V9.63601C37.9789 9.14467 38.0624 8.79267 38.2294 8.58C38.3965 8.36001 38.7052 8.25001 39.1555 8.25001H39.8745L40.0053 8.37101Z" fill="black"/>
<path d="M44.03 8.48101L44.1607 8.33801H46.1545V10.153C46.1545 10.461 46.1581 10.7103 46.1654 10.901C46.1726 11.0917 46.1763 11.3373 46.1763 11.638V20.482C46.1763 20.6653 46.1726 20.8377 46.1654 20.999C46.1581 21.1603 46.1545 21.34 46.1545 21.538V23.386H45.2829C44.8979 23.386 44.5929 23.265 44.3677 23.023C44.1426 22.7737 44.03 22.4327 44.03 22V8.48101ZM51.6999 14.85C51.7362 14.9967 51.7616 15.158 51.7761 15.334C51.7979 15.5027 51.8088 15.6493 51.8088 15.774C51.8088 15.8987 51.7979 16.0453 51.7761 16.214C51.7616 16.3827 51.7362 16.544 51.6999 16.698H47.5272C47.3602 16.698 47.1532 16.698 46.9062 16.698C46.6593 16.6907 46.4051 16.687 46.1436 16.687C45.8821 16.6797 45.6424 16.676 45.4245 16.676V14.872C45.6424 14.872 45.8821 14.872 46.1436 14.872C46.4051 14.8647 46.6593 14.861 46.9062 14.861C47.1532 14.8537 47.3602 14.85 47.5272 14.85H51.6999ZM52.8656 8.33801C52.8946 8.49934 52.9128 8.65701 52.9201 8.81101C52.9273 8.95767 52.931 9.09334 52.931 9.21801C52.931 9.34267 52.9164 9.50034 52.8874 9.69101C52.8656 9.87434 52.8256 10.0503 52.7675 10.219H47.5272C47.3602 10.219 47.1532 10.219 46.9062 10.219C46.6593 10.219 46.4051 10.2153 46.1436 10.208C45.8821 10.2007 45.6424 10.1933 45.4245 10.186V8.33801H52.8656ZM53.2796 21.483C53.2796 22.1723 53.1743 22.6637 52.9637 22.957C52.7603 23.243 52.3826 23.386 51.8306 23.386H45.4245V21.582C45.7586 21.56 46.0927 21.538 46.4268 21.516C46.7609 21.494 47.1459 21.483 47.5817 21.483H53.2796Z" fill="black"/>
<path d="M59.7386 8.33801C59.9129 8.30867 60.1236 8.28667 60.3705 8.27201C60.6174 8.25734 60.8317 8.25001 61.0133 8.25001C61.1876 8.25001 61.3982 8.25734 61.6452 8.27201C61.8921 8.28667 62.0919 8.31234 62.2444 8.34901L67.147 23.232C66.9872 23.3273 66.7911 23.397 66.5587 23.441C66.3335 23.4923 66.1011 23.518 65.8614 23.518C65.5128 23.518 65.2404 23.4373 65.0443 23.276C64.8555 23.1147 64.6921 22.803 64.5541 22.341L62.0592 14.476C61.8631 13.838 61.6597 13.167 61.4491 12.463C61.2457 11.759 61.0714 11.1247 60.9261 10.56H60.8063C60.6973 11.0367 60.5593 11.572 60.3923 12.166C60.2325 12.76 60.0945 13.2477 59.9783 13.629L56.8842 23.386C56.7535 23.4153 56.6046 23.4373 56.4375 23.452C56.2777 23.4667 56.1107 23.474 55.9364 23.474C55.7475 23.474 55.5587 23.4593 55.3698 23.43C55.1883 23.4007 55.0212 23.364 54.8687 23.32L54.8033 23.221L59.7386 8.33801ZM59.3791 19.69C59.3137 19.69 59.1721 19.69 58.9542 19.69C58.7436 19.6827 58.5293 19.679 58.3114 19.679C58.1008 19.6717 57.9591 19.668 57.8865 19.668H56.8951L57.5815 17.853H58.453C58.5257 17.853 58.6564 17.853 58.8452 17.853C59.0341 17.8457 59.2193 17.842 59.4009 17.842C59.5897 17.8347 59.7168 17.831 59.7822 17.831H62.0156C62.081 17.831 62.2081 17.8347 62.3969 17.842C62.593 17.842 62.7855 17.8457 62.9743 17.853C63.1704 17.853 63.3048 17.853 63.3774 17.853H64.2708L64.8591 19.668H63.8677C63.8023 19.668 63.6571 19.6717 63.4319 19.679C63.214 19.679 62.9961 19.6827 62.7782 19.69C62.5676 19.69 62.4296 19.69 62.3642 19.69H59.3791Z" fill="black"/>
<path d="M79.3136 12.727C79.3136 13.409 79.1902 14.0213 78.9432 14.564C78.7035 15.0993 78.3694 15.554 77.9409 15.928C77.5196 16.2947 77.0403 16.566 76.5028 16.742C76.8587 16.8667 77.1637 17.1013 77.418 17.446C77.6722 17.7833 77.8792 18.1647 78.039 18.59L79.0304 21.241C79.1974 21.6883 79.35 22.0257 79.4879 22.253C79.6332 22.4803 79.8039 22.671 80 22.825C79.8547 23.045 79.6368 23.2173 79.3463 23.342C79.0558 23.4593 78.7762 23.518 78.5074 23.518C78.0934 23.518 77.7884 23.4007 77.5923 23.166C77.3962 22.9313 77.2146 22.5903 77.0475 22.143L75.9254 19.096C75.7365 18.5753 75.486 18.1427 75.1737 17.798C74.8686 17.446 74.3711 17.27 73.6811 17.27H70.9138V15.521C71.2334 15.5063 71.6002 15.4917 72.0142 15.477C72.4355 15.4623 72.8495 15.455 73.2562 15.455C73.6629 15.4477 74.0152 15.444 74.313 15.444C75.0393 15.444 75.5985 15.3083 75.9908 15.037C76.383 14.7657 76.6553 14.4247 76.8079 14.014C76.9604 13.596 77.0366 13.167 77.0366 12.727C77.0366 12.2797 76.9604 11.8507 76.8079 11.44C76.6553 11.022 76.383 10.681 75.9908 10.417C75.5985 10.153 75.0393 10.021 74.313 10.021C74.0951 10.021 73.8372 10.021 73.5395 10.021C73.2489 10.021 72.9511 10.021 72.6461 10.021C72.341 10.0137 72.065 10.0063 71.8181 9.99901V23.364C71.651 23.3933 71.4695 23.4153 71.2734 23.43C71.0773 23.4447 70.8884 23.452 70.7068 23.452C70.547 23.452 70.3691 23.4447 70.173 23.43C69.9769 23.4153 69.7953 23.3933 69.6283 23.364V8.45901L69.7699 8.32701C70.5834 8.31234 71.375 8.29767 72.1449 8.28301C72.9221 8.26101 73.6775 8.25001 74.411 8.25001C75.4206 8.25001 76.2922 8.42234 77.0257 8.76701C77.7593 9.11167 78.3222 9.61767 78.7144 10.285C79.1139 10.9523 79.3136 11.7663 79.3136 12.727Z" fill="black"/>
<path d="M0 8.3186C0.139675 8.28933 0.30263 8.26738 0.488864 8.25275C0.675098 8.23812 0.841378 8.2308 0.987705 8.2308C1.15399 8.2308 1.32692 8.23812 1.5065 8.25275C1.68608 8.26738 1.85236 8.28933 2.00534 8.3186V23.3096C1.85236 23.3389 1.68608 23.3608 1.5065 23.3755C1.32692 23.3901 1.15399 23.3974 0.987705 23.3974C0.841378 23.3974 0.675098 23.3901 0.488864 23.3755C0.30263 23.3608 0.139675 23.3389 0 23.3096V8.3186Z" fill="black"/>
<path d="M19.784 8.3186C19.9237 8.28933 20.0867 8.26738 20.2729 8.25275C20.4591 8.23812 20.6254 8.2308 20.7717 8.2308C20.938 8.2308 21.1109 8.23812 21.2905 8.25275C21.4701 8.26738 21.6364 8.28933 21.7894 8.3186V23.3096C21.6364 23.3389 21.4701 23.3608 21.2905 23.3755C21.1109 23.3901 20.938 23.3974 20.7717 23.3974C20.6254 23.3974 20.4591 23.3901 20.2729 23.3755C20.0867 23.3608 19.9237 23.3389 19.784 23.3096V8.3186Z" fill="black"/>
<path d="M19.784 8.3186C19.9237 8.28933 20.0867 8.26738 20.2729 8.25275C20.4591 8.23812 20.6254 8.2308 20.7717 8.2308C20.938 8.2308 21.1109 8.23812 21.2905 8.25275C21.4701 8.26738 21.6364 8.28933 21.7894 8.3186V23.3096C21.6364 23.3389 21.4701 23.3608 21.2905 23.3755C21.1109 23.3901 20.938 23.3974 20.7717 23.3974C20.6254 23.3974 20.4591 23.3901 20.2729 23.3755C20.0867 23.3608 19.9237 23.3389 19.784 23.3096V8.3186Z" fill="black"/>
<path d="M10.2013 0.0877953C10.341 0.0585298 10.5039 0.0365808 10.6902 0.0219485C10.8764 0.00731617 9.79557 0 9.9419 0C10.1082 0 10.2811 0.00731617 10.4607 0.0219485C10.6403 0.0365808 10.8066 0.0585298 10.9595 0.0877953V13.4162V16.7414V32.9122C10.8066 32.9415 10.6403 32.9634 10.4607 32.9781C10.2811 32.9927 10.1082 33 9.9419 33C9.79557 33 10.8764 32.9927 10.6902 32.9781C10.5039 32.9634 10.341 32.9415 10.2013 32.9122V16.6975V13.4601V0.0877953Z" fill="black"/>
<path d="M10.2013 0.0877953C10.341 0.0585298 10.5039 0.0365808 10.6902 0.0219485C10.8764 0.00731617 9.79557 0 9.9419 0C10.1082 0 10.2811 0.00731617 10.4607 0.0219485C10.6403 0.0365808 10.8066 0.0585298 10.9595 0.0877953V13.4162V16.7414V32.9122C10.8066 32.9415 10.6403 32.9634 10.4607 32.9781C10.2811 32.9927 10.1082 33 9.9419 33C9.79557 33 10.8764 32.9927 10.6902 32.9781C10.5039 32.9634 10.341 32.9415 10.2013 32.9122V16.6975V13.4601V0.0877953Z" fill="black"/>
<path d="M10.9595 13.4162V16.7414L12.471 15.0788L10.9595 13.4162Z" fill="black"/>
<path d="M10.2013 16.6975V13.4601L8.72971 15.0788L10.2013 16.6975Z" fill="black"/>
</svg>
