<svg width="160" height="66" viewBox="0 0 160 66" fill="none" xmlns="http://www.w3.org/2000/svg">
<path d="M58.4827 16.72C58.8458 16.6467 59.2889 16.5953 59.8118 16.566C60.3348 16.522 60.7633 16.5 61.0974 16.5C61.4751 16.5 61.9036 16.5147 62.383 16.544C62.8623 16.5733 63.3126 16.6173 63.7339 16.676L62.5791 21.868L62.2304 21.912C62.2885 22.9093 62.3394 24.024 62.383 25.256C62.4411 26.4733 62.4846 27.7127 62.5137 28.974C62.5573 30.2207 62.5791 31.3867 62.5791 32.472V46.728C62.2014 46.7867 61.8382 46.8307 61.4896 46.86C61.141 46.8893 60.8214 46.904 60.5309 46.904C60.2549 46.904 59.9353 46.8893 59.5721 46.86C59.209 46.8307 58.8458 46.7867 58.4827 46.728V16.72ZM65.1938 27.984C64.6418 26.8987 64.1334 25.85 63.6685 24.838C63.2182 23.8113 62.7824 22.8287 62.3612 21.89L60.313 19.36L63.7339 16.676L73.2123 35.398C73.7788 36.542 74.3017 37.6567 74.7811 38.742C75.275 39.8273 75.7326 40.8247 76.1538 41.734L78.3328 44.022L74.7157 46.728L65.1938 27.984ZM80.0106 16.742V46.684C79.6619 46.7573 79.2407 46.8087 78.7468 46.838C78.2529 46.882 77.788 46.904 77.3522 46.904C76.931 46.904 76.4879 46.8893 76.0231 46.86C75.5728 46.8307 75.137 46.7867 74.7157 46.728L75.9359 41.756L76.3064 41.712C76.2337 40.5533 76.1684 39.3287 76.1103 38.038C76.0521 36.7473 76.0086 35.4787 75.9795 34.232C75.965 32.9853 75.9577 31.856 75.9577 30.844V19.272C75.9577 18.2893 76.1248 17.5853 76.4589 17.16C76.793 16.72 77.4104 16.5 78.311 16.5H79.7491L80.0106 16.742Z" fill="white"/>
<path d="M88.06 16.962L88.3215 16.676H92.309V20.306C92.309 20.922 92.3162 21.4207 92.3307 21.802C92.3453 22.1833 92.3525 22.6747 92.3525 23.276V40.964C92.3525 41.3307 92.3453 41.6753 92.3307 41.998C92.3162 42.3207 92.309 42.68 92.309 43.076V46.772H90.5658C89.7959 46.772 89.1858 46.53 88.7355 46.046C88.2852 45.5473 88.06 44.8653 88.06 44V16.962ZM103.4 29.7C103.472 29.9933 103.523 30.316 103.552 30.668C103.596 31.0053 103.618 31.2987 103.618 31.548C103.618 31.7973 103.596 32.0907 103.552 32.428C103.523 32.7653 103.472 33.088 103.4 33.396H95.0544C94.7203 33.396 94.3063 33.396 93.8124 33.396C93.3185 33.3813 92.8101 33.374 92.2872 33.374C91.7642 33.3593 91.2848 33.352 90.8491 33.352V29.744C91.2848 29.744 91.7642 29.744 92.2872 29.744C92.8101 29.7293 93.3185 29.722 93.8124 29.722C94.3063 29.7073 94.7203 29.7 95.0544 29.7H103.4ZM105.731 16.676C105.789 16.9987 105.826 17.314 105.84 17.622C105.855 17.9153 105.862 18.1867 105.862 18.436C105.862 18.6853 105.833 19.0007 105.775 19.382C105.731 19.7487 105.651 20.1007 105.535 20.438H95.0544C94.7203 20.438 94.3063 20.438 93.8124 20.438C93.3185 20.438 92.8101 20.4307 92.2872 20.416C91.7642 20.4013 91.2848 20.3867 90.8491 20.372V16.676H105.731ZM106.559 42.966C106.559 44.3447 106.349 45.3273 105.927 45.914C105.521 46.486 104.765 46.772 103.661 46.772H90.8491V43.164C91.5173 43.12 92.1855 43.076 92.8537 43.032C93.5219 42.988 94.2918 42.966 95.1634 42.966H106.559Z" fill="white"/>
<path d="M119.477 16.676C119.826 16.6173 120.247 16.5733 120.741 16.544C121.235 16.5147 121.663 16.5 122.027 16.5C122.375 16.5 122.796 16.5147 123.29 16.544C123.784 16.5733 124.184 16.6247 124.489 16.698L134.294 46.464C133.974 46.6547 133.582 46.794 133.117 46.882C132.667 46.9847 132.202 47.036 131.723 47.036C131.026 47.036 130.481 46.8747 130.089 46.552C129.711 46.2293 129.384 45.606 129.108 44.682L124.118 28.952C123.726 27.676 123.319 26.334 122.898 24.926C122.491 23.518 122.143 22.2493 121.852 21.12H121.613C121.395 22.0733 121.119 23.144 120.785 24.332C120.465 25.52 120.189 26.4953 119.957 27.258L113.768 46.772C113.507 46.8307 113.209 46.8747 112.875 46.904C112.555 46.9333 112.221 46.948 111.873 46.948C111.495 46.948 111.117 46.9187 110.74 46.86C110.377 46.8013 110.042 46.728 109.737 46.64L109.607 46.442L119.477 16.676ZM118.758 39.38C118.627 39.38 118.344 39.38 117.908 39.38C117.487 39.3653 117.059 39.358 116.623 39.358C116.202 39.3433 115.918 39.336 115.773 39.336H113.79L115.163 35.706H116.906C117.051 35.706 117.313 35.706 117.69 35.706C118.068 35.6913 118.439 35.684 118.802 35.684C119.179 35.6693 119.434 35.662 119.564 35.662H124.031C124.162 35.662 124.416 35.6693 124.794 35.684C125.186 35.684 125.571 35.6913 125.949 35.706C126.341 35.706 126.61 35.706 126.755 35.706H128.542L129.718 39.336H127.735C127.605 39.336 127.314 39.3433 126.864 39.358C126.428 39.358 125.992 39.3653 125.556 39.38C125.135 39.38 124.859 39.38 124.728 39.38H118.758Z" fill="white"/>
<path d="M158.627 25.454C158.627 26.818 158.38 28.0427 157.886 29.128C157.407 30.1987 156.739 31.108 155.882 31.856C155.039 32.5893 154.081 33.132 153.006 33.484C153.717 33.7333 154.327 34.2027 154.836 34.892C155.344 35.5667 155.758 36.3293 156.078 37.18L158.061 42.482C158.395 43.3767 158.7 44.0513 158.976 44.506C159.266 44.9607 159.608 45.342 160 45.65C159.709 46.09 159.274 46.4347 158.693 46.684C158.112 46.9187 157.552 47.036 157.015 47.036C156.187 47.036 155.577 46.8013 155.185 46.332C154.792 45.8627 154.429 45.1807 154.095 44.286L151.851 38.192C151.473 37.1507 150.972 36.2853 150.347 35.596C149.737 34.892 148.742 34.54 147.362 34.54H141.828V31.042C142.467 31.0127 143.2 30.9833 144.028 30.954C144.871 30.9247 145.699 30.91 146.512 30.91C147.326 30.8953 148.03 30.888 148.626 30.888C150.079 30.888 151.197 30.6167 151.982 30.074C152.766 29.5313 153.311 28.8493 153.616 28.028C153.921 27.192 154.073 26.334 154.073 25.454C154.073 24.5593 153.921 23.7013 153.616 22.88C153.311 22.044 152.766 21.362 151.982 20.834C151.197 20.306 150.079 20.042 148.626 20.042C148.19 20.042 147.674 20.042 147.079 20.042C146.498 20.042 145.902 20.042 145.292 20.042C144.682 20.0273 144.13 20.0127 143.636 19.998V46.728C143.302 46.7867 142.939 46.8307 142.547 46.86C142.155 46.8893 141.777 46.904 141.414 46.904C141.094 46.904 140.738 46.8893 140.346 46.86C139.954 46.8307 139.591 46.7867 139.257 46.728V16.918L139.54 16.654C141.167 16.6247 142.75 16.5953 144.29 16.566C145.844 16.522 147.355 16.5 148.822 16.5C150.841 16.5 152.584 16.8447 154.051 17.534C155.519 18.2233 156.644 19.2353 157.429 20.57C158.228 21.9047 158.627 23.5327 158.627 25.454Z" fill="white"/>
<path d="M0 16.6372C0.279351 16.5787 0.60526 16.5348 0.977728 16.5055C1.3502 16.4762 1.68276 16.4616 1.97541 16.4616C2.30797 16.4616 2.65383 16.4762 3.013 16.5055C3.37216 16.5348 3.70472 16.5787 4.01068 16.6372V46.6192C3.70472 46.6778 3.37216 46.7217 3.013 46.7509C2.65383 46.7802 2.30797 46.7948 1.97541 46.7948C1.68276 46.7948 1.3502 46.7802 0.977728 46.7509C0.60526 46.7217 0.279351 46.6778 0 46.6192V16.6372Z" fill="white"/>
<path d="M39.5681 16.6372C39.8474 16.5787 40.1733 16.5348 40.5458 16.5055C40.9183 16.4762 41.2508 16.4616 41.5435 16.4616C41.876 16.4616 42.2219 16.4762 42.5811 16.5055C42.9402 16.5348 43.2728 16.5787 43.5787 16.6372V46.6192C43.2728 46.6778 42.9402 46.7217 42.5811 46.7509C42.2219 46.7802 41.876 46.7948 41.5435 46.7948C41.2508 46.7948 40.9183 46.7802 40.5458 46.7509C40.1733 46.7217 39.8474 46.6778 39.5681 46.6192V16.6372Z" fill="white"/>
<path d="M39.5681 16.6372C39.8474 16.5787 40.1733 16.5348 40.5458 16.5055C40.9183 16.4762 41.2508 16.4616 41.5435 16.4616C41.876 16.4616 42.2219 16.4762 42.5811 16.5055C42.9402 16.5348 43.2728 16.5787 43.5787 16.6372V46.6192C43.2728 46.6778 42.9402 46.7217 42.5811 46.7509C42.2219 46.7802 41.876 46.7948 41.5435 46.7948C41.2508 46.7948 40.9183 46.7802 40.5458 46.7509C40.1733 46.7217 39.8474 46.6778 39.5681 46.6192V16.6372Z" fill="white"/>
<path d="M20.4026 0.175591C20.6819 0.11706 21.0079 0.0731617 21.3803 0.043897C21.7528 0.0146323 19.5911 0 19.8838 0C20.2164 0 20.5622 0.0146323 20.9214 0.043897C21.2806 0.0731617 21.6131 0.11706 21.9191 0.175591V26.8324V33.4829V65.8244C21.6131 65.8829 21.2806 65.9268 20.9214 65.9561C20.5622 65.9854 20.2164 66 19.8838 66C19.5911 66 21.7528 65.9854 21.3803 65.9561C21.0079 65.9268 20.6819 65.8829 20.4026 65.8244V33.3951V26.9202V0.175591Z" fill="white"/>
<path d="M20.4026 0.175591C20.6819 0.11706 21.0079 0.0731617 21.3803 0.043897C21.7528 0.0146323 19.5911 0 19.8838 0C20.2164 0 20.5622 0.0146323 20.9214 0.043897C21.2806 0.0731617 21.6131 0.11706 21.9191 0.175591V26.8324V33.4829V65.8244C21.6131 65.8829 21.2806 65.9268 20.9214 65.9561C20.5622 65.9854 20.2164 66 19.8838 66C19.5911 66 21.7528 65.9854 21.3803 65.9561C21.0079 65.9268 20.6819 65.8829 20.4026 65.8244V33.3951V26.9202V0.175591Z" fill="white"/>
<path d="M21.9191 26.8324V33.4829L24.942 30.1576L21.9191 26.8324Z" fill="white"/>
<path d="M20.4026 33.3951V26.9202L17.4594 30.1576L20.4026 33.3951Z" fill="white"/>
</svg>
