<svg width="24" height="20" viewBox="0 0 24 20" fill="none" xmlns="http://www.w3.org/2000/svg">
<path d="M7.539 19.501C16.596 19.501 21.5505 11.9965 21.5505 5.50004C21.5525 5.28904 21.5495 5.07804 21.5415 4.86704C22.5058 4.1684 23.3382 3.30396 24 2.31404C23.0987 2.71045 22.144 2.97224 21.1665 3.09104C22.1964 2.4756 22.9677 1.50706 23.337 0.36554C22.3699 0.939621 21.3108 1.34206 20.2065 1.55504C19.4643 0.764575 18.4821 0.240916 17.4121 0.0651759C16.3421 -0.110564 15.2441 0.0714219 14.288 0.582945C13.3319 1.09447 12.5712 1.90698 12.1237 2.89463C11.6761 3.88228 11.5668 4.98994 11.8125 6.04604C9.85452 5.94833 7.93897 5.43991 6.19024 4.55379C4.44152 3.66767 2.89871 2.42366 1.662 0.902539C1.03437 1.98725 0.842925 3.27012 1.12651 4.49081C1.4101 5.71151 2.14747 6.77859 3.189 7.47554C2.40811 7.45031 1.64429 7.24059 0.96 6.86354V6.93104C0.961909 8.06711 1.35573 9.16773 2.07499 10.0471C2.79424 10.9265 3.79488 11.5308 4.908 11.758C4.48541 11.8745 4.04885 11.9326 3.6105 11.9305C3.30138 11.9337 2.99275 11.9051 2.6895 11.845C3.00359 12.8235 3.61616 13.679 4.44125 14.2916C5.26634 14.9041 6.26253 15.243 7.29 15.2605C5.54415 16.63 3.38887 17.3732 1.17 17.371C0.778948 17.374 0.388119 17.3514 0 17.3035C2.25213 18.7397 4.8679 19.5022 7.539 19.501Z" fill="white"/>
</svg>
